<svg width="17" height="16" viewBox="0 0 17 16" fill="none" xmlns="http://www.w3.org/2000/svg">
<path d="M15.4268 4.17965C14.7114 2.95394 13.741 1.98354 12.5154 1.26823C11.2896 0.552892 9.95142 0.195312 8.49987 0.195312C7.0485 0.195312 5.70987 0.553001 4.48434 1.26823C3.25862 1.9835 2.2883 2.95394 1.57292 4.17965C0.857652 5.40533 0.5 6.74378 0.5 8.19497C0.5 9.93817 1.00859 11.5057 2.02601 12.898C3.04333 14.2903 4.35756 15.2538 5.96858 15.7885C6.15611 15.8233 6.29493 15.7988 6.38519 15.7157C6.47549 15.6324 6.52058 15.5281 6.52058 15.4033C6.52058 15.3825 6.51879 15.195 6.51533 14.8408C6.51204 14.5318 6.51029 14.2229 6.51007 13.9139L6.27048 13.9553C6.11773 13.9833 5.92502 13.9952 5.69236 13.9918C5.45981 13.9886 5.2184 13.9642 4.96844 13.9189C4.71838 13.874 4.4858 13.7698 4.27051 13.6066C4.05532 13.4434 3.90257 13.2298 3.81227 12.9661L3.70811 12.7264C3.63868 12.5668 3.52937 12.3896 3.38004 12.1952C3.23071 12.0008 3.07971 11.8689 2.92695 11.7995L2.85402 11.7473C2.80542 11.7126 2.76033 11.6707 2.71863 11.6222C2.67696 11.5736 2.64577 11.525 2.62493 11.4763C2.60407 11.4276 2.62136 11.3877 2.677 11.3563C2.73264 11.325 2.83318 11.3098 2.97908 11.3098L3.18733 11.3409C3.32623 11.3687 3.49803 11.4519 3.70296 11.5909C3.90778 11.7297 4.07616 11.9102 4.20812 12.1324C4.36792 12.4171 4.56044 12.6342 4.78624 12.7835C5.01186 12.9328 5.23934 13.0073 5.46846 13.0073C5.69758 13.0073 5.89547 12.99 6.0622 12.9554C6.22875 12.9207 6.38501 12.8685 6.53091 12.7991C6.5934 12.3336 6.76356 11.9761 7.04124 11.7261C6.64547 11.6845 6.28964 11.6219 5.97358 11.5386C5.6577 11.4552 5.33128 11.3198 4.99453 11.1321C4.6576 10.9447 4.3781 10.712 4.15595 10.4344C3.93376 10.1566 3.75141 9.79187 3.60916 9.3406C3.46684 8.88915 3.39566 8.36837 3.39566 7.77814C3.39566 6.93773 3.67002 6.22257 4.21863 5.63226C3.96163 5.00043 3.9859 4.29213 4.29149 3.50744C4.49288 3.44487 4.79153 3.49182 5.18731 3.64801C5.58316 3.80427 5.87299 3.93813 6.05709 4.04911C6.24119 4.16006 6.38869 4.25408 6.49982 4.33033C7.14577 4.14984 7.81237 4.05958 8.4998 4.05958C9.18723 4.05958 9.85397 4.14984 10.5 4.33033L10.8958 4.08045C11.1664 3.91372 11.4861 3.76093 11.8539 3.62203C12.222 3.48321 12.5034 3.44497 12.6979 3.50754C13.0103 4.29228 13.0381 5.00054 12.7811 5.63237C13.3297 6.22268 13.6041 6.93802 13.6041 7.77825C13.6041 8.36848 13.5327 8.8909 13.3906 9.34582C13.2483 9.80081 13.0644 10.1651 12.8388 10.4396C12.6129 10.714 12.3316 10.9449 11.9949 11.1323C11.658 11.3198 11.3315 11.4551 11.0156 11.5385C10.6996 11.6219 10.3438 11.6846 9.94799 11.7263C10.309 12.0387 10.4895 12.5317 10.4895 13.2053V15.403C10.4895 15.5278 10.5329 15.6321 10.6198 15.7154C10.7066 15.7985 10.8437 15.823 11.0312 15.7882C12.6424 15.2536 13.9567 14.29 14.9739 12.8977C15.9911 11.5054 16.4999 9.93788 16.4999 8.19467C16.4995 6.74367 16.1417 5.40533 15.4268 4.17965Z" fill="#09090B"/>
</svg>
