<svg width="18" height="15" viewBox="0 0 18 15" fill="none" xmlns="http://www.w3.org/2000/svg">
<path fill-rule="evenodd" clip-rule="evenodd" d="M9.6574 0.318052C9.6268 0.239452 9.5583 0.181782 9.4757 0.164922C9.393 0.148072 9.3075 0.174322 9.2485 0.234642L4.81436 4.77066C4.73192 4.855 4.72018 4.98568 4.78626 5.08336C4.85235 5.18104 4.97803 5.21876 5.08697 5.1736L8.90239 3.59237L12.8926 9.97491C12.9606 10.0836 13.1 10.1227 13.2146 10.0652C13.3291 10.0077 13.3811 9.87261 13.3345 9.75321L9.6574 0.318052ZM7.23968 6.49188C7.3038 6.38144 7.27369 6.24037 7.17006 6.16574C7.06644 6.0911 6.92309 6.10725 6.83866 6.20306L0.812007 13.0422C0.754157 13.1078 0.735137 13.1991 0.761937 13.2824C0.788737 13.3657 0.857397 13.4287 0.942677 13.4483L6.96933 14.8335C7.08396 14.8599 7.20134 14.8022 7.25051 14.6953C7.29968 14.5885 7.26713 14.4618 7.17256 14.3919L4.01038 12.054L7.23968 6.49188ZM15.2431 8.11781C15.204 8.00281 15.0874 7.93311 14.9675 7.95291C14.8477 7.97281 14.7598 8.07641 14.7598 8.19791V12.0951L7.40437 12.2391C7.27597 12.2416 7.17068 12.3416 7.16156 12.4697C7.15245 12.5978 7.24252 12.7117 7.36927 12.7324L16.9617 14.2965C17.0478 14.3106 17.135 14.2784 17.1913 14.2118C17.2476 14.1452 17.2649 14.054 17.2367 13.9714L15.2431 8.11781Z" fill="white" stroke="white" stroke-width="0.2" stroke-linecap="round" stroke-linejoin="round"/>
</svg>
