<svg width="16" height="16" viewBox="0 0 16 16" fill="none" xmlns="http://www.w3.org/2000/svg">
<g clip-path="url(#clip0_3535_10143)">
<path d="M8 0.199219C3.57486 0.199219 0 3.77408 0 8.19922C0 11.7238 2.30057 14.7249 5.47429 15.7992C5.87429 15.8746 6.02514 15.6244 6.02514 15.4244V14.0746C3.8 14.5489 3.32457 12.9992 3.32457 12.9992C2.94971 12.0735 2.42514 11.8244 2.42514 11.8244C1.70057 11.3238 2.47543 11.3489 2.47543 11.3489C3.27543 11.3992 3.69943 12.1741 3.69943 12.1741C4.42514 13.3992 5.57486 13.0495 6.02514 12.8484C6.10057 12.3238 6.29943 11.9741 6.52457 11.7741C4.74971 11.5741 2.87543 10.8746 2.87543 7.82436C2.87543 6.94893 3.17486 6.2495 3.69943 5.67465C3.62514 5.47465 3.34971 4.6495 3.77486 3.54893C3.77486 3.54893 4.44914 3.32379 5.97486 4.37408C6.62664 4.19549 7.29906 4.10327 7.97486 4.09979C8.64914 4.09979 9.34971 4.19922 9.97486 4.37408C11.5006 3.34893 12.1749 3.54893 12.1749 3.54893C12.6 4.6495 12.3246 5.47465 12.2503 5.67465C12.776 6.22322 13.0754 6.94893 13.0754 7.82322C13.0754 10.8986 11.2 11.5741 9.42514 11.7741C9.69943 12.0244 9.97486 12.4986 9.97486 13.2484V15.4495C9.97486 15.6746 10.1246 15.9238 10.5246 15.8244C13.7006 14.7238 16 11.7238 16 8.19922C16 3.77408 12.4251 0.199219 8 0.199219Z" fill="white"/>
</g>
<defs>
<clipPath id="clip0_3535_10143">
<rect width="16" height="16" fill="white"/>
</clipPath>
</defs>
</svg>
