<svg width="16" height="17" viewBox="0 0 16 17" fill="none" xmlns="http://www.w3.org/2000/svg">
<g clip-path="url(#clip0_3535_10252)">
<path fill-rule="evenodd" clip-rule="evenodd" d="M5.82804 2.37109C3.30641 3.26481 1.5 5.67143 1.5 8.49949C1.5 12.0893 4.41015 14.9995 8 14.9995C10.8282 14.9995 13.2348 13.193 14.1285 10.6712C13.3293 11.0421 12.4386 11.2493 11.5 11.2493C8.04822 11.2493 5.25 8.45111 5.25 4.99933C5.25 4.06083 5.45718 3.17017 5.82804 2.37109ZM0 8.49949C0 4.28207 3.26298 0.827463 7.40265 0.521484L8.009 1.7782C7.22684 2.6254 6.75 3.75583 6.75 4.99933C6.75 7.62268 8.87665 9.74933 11.5 9.74933C12.7436 9.74933 13.8741 9.27243 14.7213 8.49018L15.978 9.09647C15.6722 13.2363 12.2175 16.4995 8 16.4995C3.58172 16.4995 0 12.9178 0 8.49949Z" fill="white"/>
</g>
<defs>
<clipPath id="clip0_3535_10252">
<rect width="16" height="16" fill="white" transform="translate(0 0.5)"/>
</clipPath>
</defs>
</svg>
