<svg width="24" height="17" viewBox="0 0 24 17" fill="none" xmlns="http://www.w3.org/2000/svg">
<g clip-path="url(#clip0_3535_9502)">
<g clip-path="url(#clip1_3535_9502)">
<g clip-path="url(#clip2_3535_9502)">
<path d="M21.9972 16.6194L21.9994 16.6194C22.9545 16.6276 23.7381 15.8468 23.75 14.8737L23.75 2.87581C23.7462 2.4052 23.5589 1.95568 23.2297 1.62631C22.9014 1.29778 22.4589 1.11566 21.9972 1.11958L2.00064 1.11957C1.54109 1.11566 1.09858 1.29778 0.770279 1.62631C0.441145 1.95568 0.253838 2.4052 0.250008 2.87377L0.25 14.8632C0.253838 15.3338 0.441145 15.7833 0.770279 16.1127C1.09858 16.4412 1.54109 16.6234 2.00277 16.6194H21.9972ZM21.9962 17.1194L21.9951 17.1194L21.9972 17.1194H21.9962Z" fill="white" stroke="black" stroke-opacity="0.2" stroke-width="0.5"/>
<path d="M10.0021 2.92066V2.90466H14.0021V2.92066C17.1376 3.1501 19.5642 5.76085 19.5642 8.90466C19.5642 12.0485 17.1376 14.6592 14.0021 14.8887V14.9047H10.0021V14.8887C6.86668 14.6592 4.44 12.0485 4.44 8.90466C4.44 5.76085 6.86668 3.1501 10.0021 2.92066Z" fill="#0165AC"/>
<path d="M11.6021 12.2973C13.0374 11.787 13.9962 10.4286 13.9962 8.90532C13.9962 7.38202 13.0374 6.02361 11.6021 5.51332V12.2973ZM9.20212 5.51332C7.76683 6.02361 6.80808 7.38202 6.80808 8.90532C6.80808 10.4286 7.76683 11.787 9.20212 12.2973V5.51332ZM10.4021 14.1053C7.53024 14.1053 5.20212 11.7772 5.20212 8.90532C5.20212 6.03344 7.53024 3.70532 10.4021 3.70532C13.274 3.70532 15.6021 6.03344 15.6021 8.90532C15.6021 11.7772 13.274 14.1053 10.4021 14.1053Z" fill="white"/>
</g>
</g>
</g>
<defs>
<clipPath id="clip0_3535_9502">
<rect width="24" height="16" fill="white" transform="translate(0 0.869507)"/>
</clipPath>
<clipPath id="clip1_3535_9502">
<rect width="24" height="16" fill="white" transform="translate(0 0.869507)"/>
</clipPath>
<clipPath id="clip2_3535_9502">
<rect width="24" height="16" fill="white" transform="translate(0 0.869507)"/>
</clipPath>
</defs>
</svg>
