<svg width="24" height="17" viewBox="0 0 24 17" fill="none" xmlns="http://www.w3.org/2000/svg">
<g clip-path="url(#clip0_3535_9465)">
<g clip-path="url(#clip1_3535_9465)">
<g clip-path="url(#clip2_3535_9465)">
<path d="M21.75 1.11951H2.25C1.14543 1.11951 0.25 2.01494 0.25 3.11951V14.6195C0.25 15.7241 1.14543 16.6195 2.25 16.6195H21.75C22.8546 16.6195 23.75 15.7241 23.75 14.6195V3.11951C23.75 2.01494 22.8546 1.11951 21.75 1.11951Z" fill="white" stroke="black" stroke-opacity="0.2" stroke-width="0.5"/>
<path d="M2.78773 6.78394C2.26459 6.49701 1.66754 6.26624 1 6.1061L1.028 5.98139H3.76498C4.13596 5.99439 4.43699 6.10601 4.53495 6.50022L5.12977 9.3361L5.31198 10.1902L6.97797 5.98139H8.77679L6.10288 12.147H4.30397L2.78773 6.78394ZM10.1 12.1536H8.39883L9.46285 5.98139H11.1639L10.1 12.1536ZM16.2668 6.13228L16.0354 7.46509L15.8816 7.39955C15.5737 7.27475 15.1674 7.15004 14.6144 7.16322C13.9427 7.16322 13.6415 7.43228 13.6345 7.69497C13.6345 7.98392 13.9989 8.17435 14.5939 8.45676C15.574 8.89669 16.0286 9.43507 16.0218 10.1377C16.0081 11.4181 14.846 12.2456 13.0611 12.2456C12.2979 12.2389 11.5628 12.0876 11.1638 11.9171L11.4019 10.5316L11.6259 10.6302C12.1789 10.8602 12.5428 10.9585 13.222 10.9585C13.7118 10.9585 14.2369 10.7679 14.2436 10.3544C14.2436 10.0852 14.0199 9.88801 13.3617 9.58597C12.7178 9.29038 11.8568 8.79799 11.8708 7.91149C11.8781 6.70993 13.0611 5.86951 14.741 5.86951C15.399 5.86951 15.9312 6.0074 16.2668 6.13228ZM18.5278 9.96699H19.9417C19.8718 9.6584 19.5496 8.18098 19.5496 8.18098L19.4307 7.64915C19.3467 7.87893 19.1999 8.25324 19.2069 8.24006C19.2069 8.24006 18.6678 9.61241 18.5278 9.96699ZM20.6276 5.98139L22 12.1535H20.4249C20.4249 12.1535 20.2708 11.4443 20.2219 11.2276H18.0378C17.9746 11.3917 17.6808 12.1535 17.6808 12.1535H15.8958L18.4226 6.4935C18.5977 6.09292 18.906 5.98139 19.3118 5.98139H20.6276Z" fill="#1434CB"/>
</g>
</g>
</g>
<defs>
<clipPath id="clip0_3535_9465">
<rect width="24" height="16" fill="white" transform="translate(0 0.869507)"/>
</clipPath>
<clipPath id="clip1_3535_9465">
<rect width="24" height="16" fill="white" transform="translate(0 0.869507)"/>
</clipPath>
<clipPath id="clip2_3535_9465">
<rect width="24" height="16" fill="white" transform="translate(0 0.869507)"/>
</clipPath>
</defs>
</svg>
